<svg width="620" height="147" viewBox="0 0 620 147" fill="none" xmlns="http://www.w3.org/2000/svg">
<g clip-path="url(#clip0_407_2045)">
<g clip-path="url(#clip1_407_2045)">
<path d="M141.597 4.48113C141.451 4.33555 141.257 4.2385 141.112 4.09293C140.675 3.75325 140.287 3.4621 139.85 3.17095C139.704 3.0739 139.559 2.97685 139.413 2.8798C138.977 2.58864 138.54 2.34602 138.055 2.10339C137.86 2.00634 137.666 1.90929 137.521 1.81224C137.084 1.61814 136.696 1.42404 136.259 1.22994C136.016 1.13289 135.725 1.03584 135.483 0.938786C135.143 0.79321 134.755 0.696159 134.415 0.550583C134.075 0.453533 133.736 0.356482 133.348 0.259432C133.056 0.162381 132.765 0.113856 132.474 0.0653308C132.037 -0.0317198 131.601 -0.12877 131.164 -0.177296C130.921 -0.225821 130.727 -0.225821 130.485 -0.274346C129.999 -0.322871 129.466 -0.371397 128.98 -0.419922C128.786 -0.419922 128.592 -0.419922 128.398 -0.419922C127.913 -0.419922 127.379 -0.419922 126.845 -0.419922C126.603 -0.419922 126.408 -0.371397 126.166 -0.371397C125.681 -0.322871 125.195 -0.274346 124.759 -0.225821C124.467 -0.177296 124.176 -0.12877 123.885 -0.080245C123.594 -0.0317198 123.303 0.0168055 123.012 0.0653308C122.866 0.113856 122.721 0.162381 122.575 0.162381C122.429 0.210907 122.332 0.210907 122.187 0.259432C121.653 0.405008 121.119 0.550583 120.585 0.744685C120.488 0.79321 120.391 0.79321 120.246 0.841735C119.663 1.03584 119.033 1.27846 118.499 1.56961C118.353 1.61814 118.256 1.71519 118.111 1.76372C117.625 2.00634 117.189 2.24897 116.752 2.49159C116.606 2.58864 116.461 2.63717 116.315 2.73422C115.781 3.0739 115.296 3.41357 114.762 3.75325C114.617 3.8503 114.471 3.99588 114.326 4.09293C113.937 4.38408 113.549 4.67523 113.21 5.01491C113.113 5.11196 112.967 5.20901 112.87 5.30606C112.821 5.35458 112.773 5.40311 112.724 5.45163C112.336 5.83984 111.899 6.22804 111.56 6.66477C111.366 6.90739 111.172 7.10149 110.977 7.34412C110.783 7.58675 110.589 7.82937 110.395 8.072C110.055 8.50873 109.764 8.94545 109.473 9.38218C109.328 9.62481 109.182 9.81891 109.036 10.0615C108.842 10.3527 108.697 10.6438 108.503 10.935C108.357 11.2261 108.212 11.4688 108.066 11.7599C107.872 12.0996 107.726 12.4393 107.581 12.8275C107.387 13.2157 107.241 13.6524 107.095 14.0891C107.047 14.2832 106.95 14.4773 106.901 14.6714C106.853 14.817 106.804 14.9626 106.756 15.1082C106.707 15.2052 106.707 15.2537 106.707 15.3508L98.9917 40.1472L56.0954 49.8523L38.3351 30.6848C38.2866 30.6362 38.2866 30.5877 38.2381 30.5877C38.1896 30.5392 38.141 30.4907 38.0925 30.4421C37.7043 30.0539 37.3646 29.6657 36.9764 29.3261C36.7338 29.132 36.5397 28.9379 36.2971 28.7438C36.0544 28.5497 35.8118 28.3556 35.5692 28.1129C35.1325 27.7733 34.6957 27.4821 34.259 27.1424C34.0649 26.9969 33.8223 26.8513 33.6282 26.7542C33.337 26.5601 33.0459 26.366 32.7062 26.2204C32.4151 26.0749 32.1724 25.9293 31.8813 25.7837C31.4931 25.5896 31.1049 25.3955 30.6681 25.2014C30.3285 25.0558 29.9403 24.9103 29.6006 24.7647C29.4065 24.6676 29.1639 24.6191 28.9698 24.5221C27.7566 24.1339 26.495 23.7942 25.1848 23.6001C25.1363 23.6001 25.0877 23.6001 25.0392 23.6001C23.6805 23.406 22.3218 23.3575 20.9146 23.406H20.866C20.1867 23.4545 19.5073 23.503 18.828 23.6001H18.7795C18.1972 23.6971 17.6148 23.7942 16.984 23.9398C16.9355 23.9398 16.887 23.9883 16.7899 23.9883C16.4017 24.0853 16.062 24.1824 15.6738 24.328C15.3342 24.425 14.9945 24.5221 14.7033 24.6191C14.3151 24.7647 13.9269 24.9103 13.5387 25.1044C13.2476 25.2014 12.9564 25.2985 12.7138 25.444C12.3256 25.6381 11.9374 25.8322 11.5977 26.0263C11.3551 26.1719 11.0639 26.269 10.8213 26.4146C10.4816 26.6087 10.142 26.8513 9.80228 27.0939C9.55965 27.288 9.2685 27.4336 9.02588 27.6277C8.6862 27.8703 8.34652 28.1615 8.05537 28.4041C7.81274 28.5982 7.57012 28.7923 7.37602 28.9864C7.32749 29.0349 7.27897 29.0834 7.23044 29.132C6.93929 29.4231 6.64814 29.7143 6.35699 30.0054C6.21141 30.151 6.01731 30.2966 5.87173 30.4907C5.48353 30.8789 5.14385 31.3156 4.80418 31.7523C4.70713 31.8494 4.61008 31.995 4.51303 32.092C4.17335 32.5287 3.83367 33.014 3.54252 33.4992C3.44547 33.5963 3.39694 33.7419 3.29989 33.8389C3.00874 34.3242 2.76612 34.7609 2.52349 35.2461C2.42644 35.3917 2.32939 35.5858 2.28086 35.7314C2.08676 36.1681 1.89266 36.6049 1.69856 37.0416C1.60151 37.2842 1.50446 37.5268 1.40741 37.7695C1.26183 38.1091 1.16478 38.4973 1.06773 38.837C0.970681 39.1767 0.825106 39.5649 0.77658 39.9046C0.728055 40.1472 0.67953 40.4384 0.582479 40.681C0.485429 41.1177 0.388378 41.603 0.339853 42.0882C0.291328 42.2823 0.291328 42.4279 0.291328 42.622C0.242802 43.1558 0.145752 43.6895 0.145752 44.2233C0.145752 44.3689 0.145752 44.5145 0.145752 44.66C0.145752 45.2424 0.145752 45.7761 0.145752 46.3584C0.145752 46.504 0.194277 46.6496 0.194277 46.7952C0.242802 47.3289 0.291328 47.9112 0.339853 48.445C0.388378 48.6876 0.436904 48.8817 0.436904 49.1244C0.485429 49.5126 0.582479 49.9493 0.67953 50.3375C0.67953 50.386 0.728055 50.4831 0.728055 50.5316C0.77658 50.8228 0.873631 51.1139 0.970681 51.4051C1.06773 51.7933 1.21331 52.23 1.31036 52.6182C1.40741 52.9093 1.55298 53.2005 1.65004 53.4916C1.79561 53.8798 1.94119 54.2681 2.13529 54.6077C2.28086 54.8504 2.42644 55.1415 2.52349 55.3841C2.71759 55.7723 2.91169 56.1605 3.10579 56.5002C3.25137 56.7428 3.44547 56.9855 3.59105 57.2766C3.83367 57.6163 4.02777 58.0045 4.2704 58.3442C4.4645 58.6353 4.70713 58.878 4.90123 59.1206C5.14385 59.4117 5.38648 59.7029 5.62911 59.994C5.67763 60.0426 5.72616 60.0911 5.72616 60.1396C6.11436 60.5763 6.55109 61.0131 6.98781 61.4013C6.98781 61.4013 7.03634 61.4013 7.03634 61.4498C7.52159 61.935 8.05537 62.3718 8.58915 62.76C8.58915 62.76 8.58915 62.76 8.63767 62.8085C9.75375 63.6334 10.9184 64.4098 12.1315 64.9921C12.18 64.9921 12.2285 65.0407 12.2771 65.0407C13.4417 65.623 14.6548 66.0597 15.9165 66.4479C16.1106 66.4964 16.3532 66.5449 16.5473 66.642C16.9355 66.739 17.3237 66.8361 17.6634 66.8846C18.1001 66.9817 18.5368 67.0302 18.9736 67.1272C19.2647 67.1758 19.6044 67.2243 19.8955 67.2243C20.2352 67.2728 20.5749 67.2728 20.9631 67.2728C21.2057 67.2728 21.4483 67.2728 21.691 67.2728C22.2247 67.2728 22.7585 67.2728 23.2923 67.2243C23.632 67.2243 23.9231 67.1758 24.2628 67.1272C24.554 67.0787 24.8451 67.0787 25.1363 67.0302C25.67 66.9331 26.2038 66.8846 26.6891 66.739C26.7861 66.739 26.8346 66.739 26.9317 66.6905C26.9802 66.6905 27.0287 66.642 27.0773 66.642L52.4075 60.916L82.2505 93.2338L74.535 118.03C74.4865 118.127 74.4379 118.224 74.4379 118.321C74.3894 118.467 74.3409 118.613 74.2924 118.758C74.2438 118.904 74.1953 119.049 74.1468 119.195C74.0012 119.777 73.8556 120.408 73.7586 121.039C73.7586 121.087 73.7586 121.136 73.71 121.233C73.613 121.815 73.5645 122.398 73.5159 122.98C73.5159 123.125 73.4674 123.319 73.4674 123.465C73.4189 124.096 73.4189 124.727 73.4189 125.358C73.4189 125.455 73.4189 125.6 73.4189 125.697C73.4189 126.231 73.4674 126.813 73.5645 127.347C73.5645 127.493 73.613 127.687 73.613 127.832C73.71 128.415 73.8071 128.997 73.9042 129.579C73.9042 129.628 73.9527 129.676 73.9527 129.725C73.9527 129.773 73.9527 129.822 74.0012 129.87C74.0982 130.21 74.1953 130.55 74.2924 130.889C74.3894 131.229 74.4865 131.569 74.5835 131.908C74.7291 132.297 74.8747 132.636 75.0202 132.976C75.1658 133.316 75.2629 133.655 75.4084 133.947C75.554 134.286 75.7481 134.626 75.9422 134.966C76.0878 135.257 76.2334 135.596 76.4275 135.888C76.6216 136.227 76.8157 136.518 77.0098 136.858C77.2039 137.149 77.3494 137.44 77.5921 137.731C77.8347 138.023 78.0288 138.314 78.2714 138.605C78.4655 138.848 78.6596 139.139 78.9023 139.381C79.1449 139.673 79.436 139.915 79.6787 140.206C79.9213 140.449 80.1639 140.692 80.4065 140.934C80.6977 141.177 80.9403 141.419 81.2315 141.662C81.4741 141.905 81.7167 142.099 82.0079 142.293C82.299 142.536 82.5902 142.73 82.8813 142.924C83.1725 143.118 83.4151 143.312 83.7063 143.506C83.9974 143.7 84.3371 143.846 84.6282 144.04C84.9194 144.234 85.2105 144.379 85.5502 144.525C85.8899 144.671 86.181 144.816 86.5207 144.962C86.8604 145.107 87.1515 145.253 87.4912 145.398C87.8309 145.544 88.1706 145.641 88.5102 145.738C88.8499 145.835 89.1896 145.981 89.5293 146.078C89.869 146.175 90.2086 146.223 90.5968 146.32C90.9365 146.418 91.2762 146.466 91.6159 146.563C91.9555 146.612 92.3438 146.66 92.732 146.709C93.0716 146.757 93.4113 146.806 93.751 146.854C94.1392 146.903 94.5274 146.903 94.9156 146.903C95.2553 146.903 95.5949 146.951 95.9346 146.903C96.3228 146.903 96.711 146.854 97.0992 146.806C97.4389 146.757 97.7786 146.757 98.1183 146.709C98.5065 146.66 98.8947 146.563 99.2829 146.515C99.574 146.466 99.8652 146.418 100.205 146.369C100.253 146.369 100.302 146.32 100.35 146.32C100.399 146.32 100.447 146.32 100.496 146.272C100.836 146.175 101.127 146.078 101.467 145.981C101.806 145.884 102.146 145.787 102.534 145.69C102.874 145.544 103.262 145.398 103.602 145.301C103.941 145.156 104.281 145.059 104.572 144.913C104.912 144.768 105.251 144.574 105.591 144.379C105.882 144.234 106.222 144.088 106.513 143.894C106.853 143.7 107.144 143.506 107.484 143.263C107.775 143.069 108.066 142.924 108.309 142.73C108.6 142.487 108.939 142.244 109.231 142.002C109.473 141.808 109.764 141.614 110.007 141.371C110.298 141.128 110.589 140.837 110.832 140.595C111.074 140.352 111.317 140.158 111.511 139.915C111.754 139.624 111.996 139.333 112.239 139.042C112.433 138.799 112.676 138.556 112.87 138.314C113.113 138.023 113.307 137.683 113.501 137.392C113.695 137.101 113.889 136.858 114.083 136.567C114.277 136.276 114.471 135.936 114.617 135.596C114.762 135.305 114.957 135.014 115.102 134.723C115.248 134.383 115.393 134.092 115.539 133.752C115.684 133.413 115.83 133.122 115.976 132.782C116.121 132.442 116.218 132.103 116.315 131.763C116.412 131.423 116.558 131.084 116.655 130.744C116.752 130.404 116.8 130.065 116.898 129.725C116.995 129.385 117.092 129.045 117.14 128.657C117.189 128.318 117.237 127.978 117.286 127.59C117.334 127.25 117.383 126.862 117.431 126.522C117.48 126.182 117.48 125.794 117.48 125.455C117.48 125.066 117.528 124.727 117.528 124.339C117.528 123.999 117.48 123.611 117.48 123.271C117.431 122.883 117.431 122.495 117.383 122.155C117.334 121.815 117.286 121.476 117.189 121.136C117.14 120.796 117.092 120.457 116.995 120.117C116.995 120.068 116.946 120.02 116.946 119.971C116.946 119.923 116.946 119.874 116.946 119.826C116.898 119.68 116.849 119.583 116.849 119.437C116.655 118.758 116.461 118.03 116.218 117.399C116.121 117.157 116.024 116.914 115.927 116.672C115.684 116.089 115.442 115.458 115.151 114.925C115.054 114.731 114.957 114.488 114.859 114.294C114.471 113.566 113.986 112.79 113.501 112.11C113.452 112.062 113.452 112.062 113.404 112.013C112.918 111.382 112.433 110.751 111.899 110.169C111.851 110.121 111.802 110.024 111.705 109.975C111.608 109.878 111.56 109.829 111.463 109.732L93.848 90.662L106.901 48.6391L132.232 42.9131C132.28 42.9131 132.329 42.9131 132.377 42.8646C132.426 42.8646 132.474 42.8161 132.523 42.8161C132.523 42.8161 132.523 42.8161 132.571 42.8161C132.62 42.8161 132.668 42.7676 132.717 42.7676C133.493 42.5735 134.27 42.3794 134.997 42.0882C135.24 41.9912 135.434 41.8941 135.677 41.8456C136.259 41.603 136.841 41.3603 137.375 41.1177C137.618 41.0207 137.86 40.8751 138.103 40.778C138.734 40.4384 139.365 40.0501 139.947 39.6619C140.093 39.5649 140.19 39.5164 140.335 39.4193C141.015 38.9341 141.694 38.4003 142.325 37.818C142.422 37.7695 142.47 37.7209 142.567 37.6239C142.81 37.4298 143.004 37.1872 143.198 36.9931C143.392 36.799 143.586 36.6049 143.781 36.3622C144.12 36.0226 144.411 35.6343 144.751 35.2461C144.897 35.1006 145.042 34.9065 145.139 34.7609C145.479 34.3242 145.77 33.936 146.061 33.4992C146.158 33.3537 146.255 33.2081 146.352 33.014C146.644 32.5773 146.886 32.1405 147.129 31.7038C147.226 31.5097 147.323 31.3156 147.42 31.1215C147.614 30.6848 147.808 30.2966 148.002 29.8598C148.099 29.6172 148.196 29.3261 148.293 29.0834C148.439 28.7438 148.536 28.3556 148.682 28.0159C148.779 27.6762 148.876 27.288 148.973 26.9483C149.07 26.6572 149.118 26.366 149.167 26.0749C149.264 25.6381 149.361 25.2014 149.409 24.7647C149.458 24.5221 149.458 24.328 149.507 24.0853C149.555 23.6001 149.604 23.0663 149.652 22.5811C149.652 22.387 149.652 22.1929 149.652 21.9988C149.652 21.465 149.652 20.9797 149.652 20.4459C149.652 20.2518 149.604 20.0092 149.604 19.8151C149.555 19.3299 149.507 18.8446 149.458 18.3594C149.409 18.0682 149.361 17.7771 149.312 17.5344C149.264 17.2433 149.215 16.9036 149.167 16.6124C149.118 16.5154 149.118 16.3698 149.07 16.2728C148.973 15.9331 148.876 15.6419 148.779 15.3023C148.682 14.9141 148.585 14.5744 148.439 14.1862C148.342 13.8465 148.196 13.5068 148.051 13.1672C147.905 12.8275 147.808 12.4878 147.614 12.1481C147.468 11.8084 147.274 11.5173 147.129 11.1776C146.983 10.8379 146.789 10.5468 146.644 10.2071C146.449 9.86743 146.255 9.57628 146.061 9.28513C145.867 8.99398 145.673 8.70283 145.479 8.41168C145.236 8.12052 144.994 7.82937 144.751 7.4897C144.557 7.24707 144.314 6.95592 144.12 6.71329C144.023 6.61624 143.975 6.51919 143.878 6.42214C143.683 6.17951 143.441 5.98541 143.198 5.74279C143.004 5.54869 142.81 5.35458 142.616 5.16048C142.373 5.11196 141.985 4.77228 141.597 4.48113ZM131.843 10.5468C131.989 10.5953 132.086 10.6438 132.232 10.6924C132.474 10.7894 132.717 10.8865 132.911 11.032C133.008 11.0806 133.105 11.1291 133.202 11.1776C133.445 11.3232 133.687 11.4688 133.93 11.6143C134.027 11.6629 134.075 11.7114 134.173 11.7599C134.415 11.9055 134.658 12.0996 134.852 12.2452C134.949 12.2937 134.997 12.3907 135.095 12.4393C135.289 12.5848 135.483 12.779 135.677 12.9731C135.774 13.0701 135.871 13.1672 136.016 13.2642C136.162 13.4098 136.356 13.6039 136.502 13.7495C136.599 13.895 136.744 14.0406 136.841 14.1862C136.987 14.3318 137.084 14.5259 137.23 14.6714C137.327 14.817 137.424 14.9626 137.521 15.1567C137.618 15.3023 137.715 15.4964 137.86 15.6419C137.958 15.7875 138.055 15.9816 138.152 16.1272C138.249 16.3213 138.346 16.4669 138.394 16.661C138.491 16.8551 138.54 17.0006 138.637 17.1948C138.685 17.3889 138.782 17.5344 138.831 17.7285C138.879 17.9226 138.928 18.1167 139.025 18.3108C139.074 18.5049 139.122 18.6505 139.171 18.8446C139.219 19.0872 139.268 19.2813 139.316 19.524C139.365 19.6695 139.365 19.8151 139.413 19.9607C139.462 20.2033 139.462 20.4945 139.51 20.7371C139.51 20.8341 139.51 20.9312 139.51 21.0768C139.51 21.3679 139.51 21.6591 139.51 21.9502C139.51 22.0473 139.51 22.1443 139.51 22.2414C139.51 22.5325 139.462 22.8237 139.413 23.0663C139.413 23.1634 139.365 23.2604 139.365 23.3575C139.316 23.6001 139.268 23.8427 139.219 24.0853C139.171 24.2309 139.171 24.3765 139.122 24.5221C139.074 24.7162 139.025 24.9103 138.928 25.1529C138.879 25.347 138.831 25.4926 138.734 25.6867C138.685 25.8322 138.637 25.9778 138.54 26.1234C138.443 26.3175 138.346 26.5601 138.249 26.7542C138.2 26.8513 138.152 26.9969 138.055 27.0939C137.909 27.3365 137.812 27.5306 137.666 27.7733C137.618 27.8703 137.521 27.9674 137.472 28.0644C137.327 28.307 137.181 28.5011 137.036 28.6952C136.938 28.7923 136.89 28.8893 136.793 28.9864C136.647 29.1805 136.502 29.3746 136.308 29.5202C136.211 29.6657 136.065 29.7628 135.968 29.8598C135.822 30.0054 135.677 30.151 135.531 30.2966C135.386 30.4421 135.24 30.5392 135.095 30.6848C134.949 30.7818 134.803 30.9274 134.658 31.0245C134.512 31.1215 134.318 31.2186 134.173 31.3641C134.027 31.4612 133.833 31.5582 133.687 31.6553C133.542 31.7523 133.348 31.8494 133.202 31.9464C133.008 32.0435 132.862 32.1405 132.668 32.1891C132.474 32.2861 132.329 32.3346 132.134 32.3832C131.94 32.4802 131.746 32.5287 131.552 32.5773C131.358 32.6258 131.212 32.6743 131.018 32.7228C130.824 32.7714 130.63 32.8199 130.436 32.8684C130.242 32.9169 129.999 32.9655 129.805 33.014C129.66 33.0625 129.466 33.0625 129.32 33.111C129.077 33.1596 128.835 33.1596 128.592 33.1596C128.447 33.1596 128.35 33.1596 128.204 33.1596C127.913 33.1596 127.67 33.1596 127.379 33.1596C127.282 33.1596 127.136 33.1596 127.039 33.1596C126.797 33.1596 126.506 33.111 126.263 33.0625C126.166 33.0625 126.02 33.014 125.923 33.014C125.681 32.9655 125.438 32.9169 125.195 32.8684C125.05 32.8199 124.904 32.8199 124.759 32.7714C124.565 32.7228 124.37 32.6743 124.176 32.6258C123.982 32.5773 123.788 32.4802 123.594 32.4317C123.448 32.3832 123.303 32.3346 123.157 32.2861C122.915 32.1891 122.721 32.092 122.478 31.995C122.381 31.9464 122.284 31.8979 122.187 31.8494C121.944 31.7038 121.702 31.6068 121.507 31.4612C121.41 31.4127 121.313 31.3641 121.265 31.2671C121.022 31.1215 120.828 30.9759 120.585 30.7818C120.488 30.7333 120.391 30.6362 120.294 30.5392C120.1 30.3936 119.906 30.1995 119.712 30.0539C119.615 29.9569 119.469 29.8113 119.372 29.7143C119.227 29.5687 119.081 29.4231 118.936 29.229C118.79 29.0834 118.693 28.9379 118.596 28.7923C118.45 28.6467 118.353 28.5011 118.256 28.3556C118.159 28.21 118.014 28.0159 117.917 27.8703C117.82 27.7247 117.722 27.5792 117.625 27.3851C117.528 27.191 117.431 27.0454 117.334 26.8513C117.237 26.7057 117.14 26.5116 117.092 26.366C116.995 26.1719 116.946 26.0263 116.849 25.8322C116.8 25.6381 116.703 25.4926 116.655 25.2985C116.606 25.1044 116.558 24.9103 116.461 24.7162C116.412 24.5221 116.364 24.3765 116.315 24.1824C116.267 23.9398 116.218 23.7457 116.17 23.503C116.121 23.3575 116.121 23.2119 116.073 23.0663C116.024 22.8237 116.024 22.5325 115.976 22.2899C115.976 22.1929 115.976 22.0473 115.976 21.9502C115.976 21.6591 115.976 21.3679 115.976 21.1253C115.976 21.0282 115.976 20.9312 115.976 20.8341C115.976 20.543 116.024 20.2518 116.073 20.0092C116.073 19.9122 116.121 19.8151 116.121 19.7181C116.17 19.4754 116.218 19.2328 116.267 18.9417C116.315 18.7961 116.315 18.6505 116.364 18.5535C116.412 18.3594 116.461 18.1653 116.558 17.9226C116.606 17.7285 116.655 17.583 116.752 17.3889C116.8 17.2433 116.849 17.0977 116.946 16.9521C117.043 16.758 117.14 16.5154 117.237 16.3213C117.286 16.2242 117.334 16.0787 117.431 15.9816C117.577 15.739 117.674 15.5449 117.82 15.3023C117.868 15.2052 117.917 15.1082 118.014 15.0111C118.159 14.7685 118.305 14.5744 118.499 14.3318C118.596 14.2347 118.644 14.1377 118.741 14.0406C118.887 13.8465 119.081 13.6524 119.227 13.4583C119.324 13.3613 119.421 13.2157 119.566 13.1186C119.712 12.9731 119.906 12.8275 120.052 12.6334C120.197 12.5363 120.343 12.3907 120.488 12.2937C120.634 12.1481 120.828 12.0511 120.974 11.9055C121.119 11.8084 121.265 11.7114 121.41 11.6143C121.604 11.5173 121.75 11.3717 121.944 11.2747C122.09 11.1776 122.235 11.1291 122.381 11.032C122.575 10.935 122.769 10.8379 122.963 10.7409C123.109 10.6924 123.303 10.5953 123.448 10.5468C123.643 10.4497 123.837 10.4012 124.031 10.3042C124.225 10.2556 124.37 10.2071 124.565 10.1586C124.759 10.1101 124.953 10.0615 125.147 10.013C125.341 9.96448 125.535 9.91596 125.729 9.91596C125.923 9.86743 126.069 9.86743 126.263 9.81891C126.506 9.77038 126.748 9.77038 126.991 9.77038C127.136 9.77038 127.233 9.77038 127.379 9.72186C127.622 9.72186 127.913 9.72186 128.155 9.72186C128.252 9.72186 128.398 9.72186 128.495 9.72186C128.738 9.72186 129.029 9.77038 129.271 9.77038C129.417 9.77038 129.514 9.81891 129.66 9.81891C129.902 9.86743 130.096 9.91596 130.339 9.96448C130.485 10.013 130.679 10.0615 130.824 10.0615C131.018 10.1101 131.164 10.1586 131.358 10.2071C131.455 10.4012 131.649 10.4497 131.843 10.5468ZM33.6282 43.7866C33.6767 44.0777 33.6767 44.3204 33.7252 44.6115C33.7252 44.7086 33.7252 44.8056 33.7252 44.9027C33.7252 45.1938 33.7252 45.485 33.7252 45.7761C33.7252 45.8732 33.7252 45.9702 33.7252 46.0188C33.7252 46.3099 33.6767 46.5525 33.6282 46.8437C33.6282 46.9407 33.6282 47.0378 33.5797 47.1834C33.5311 47.426 33.4826 47.6686 33.4341 47.9112C33.3856 48.0568 33.3856 48.2024 33.337 48.348C33.2885 48.5421 33.24 48.7362 33.1915 48.9303C33.1429 49.1244 33.0944 49.3185 32.9974 49.5126C32.9488 49.6582 32.9003 49.8037 32.8518 49.9008C32.7547 50.1434 32.6577 50.3375 32.5606 50.5801C32.5121 50.6772 32.4636 50.7742 32.4151 50.8713C32.2695 51.1139 32.1724 51.3565 32.0268 51.5992C31.9783 51.6962 31.9298 51.7447 31.8813 51.8418C31.7357 52.0844 31.5416 52.327 31.396 52.5697C31.3475 52.6667 31.2504 52.7152 31.2019 52.8123C31.0563 53.0064 30.8622 53.249 30.6681 53.4431C30.5711 53.5402 30.4255 53.6858 30.3285 53.7828C30.1829 53.9284 30.0373 54.1225 29.8432 54.2681C29.6976 54.4136 29.5035 54.5592 29.358 54.6563C29.2124 54.7533 29.0668 54.8989 28.9698 54.9959C28.7757 55.1415 28.6301 55.2386 28.436 55.3356C28.2904 55.4327 28.1448 55.5297 27.9993 55.6268C27.8052 55.7238 27.6596 55.8209 27.4655 55.9179C27.3199 56.015 27.1258 56.112 26.9802 56.1605C26.8346 56.2576 26.6405 56.3061 26.4464 56.3546C26.2523 56.4517 26.0582 56.5002 25.8641 56.5973C25.67 56.6458 25.4759 56.6943 25.2818 56.7428C25.0877 56.7914 24.9422 56.8399 24.7481 56.8884C24.5054 56.9369 24.2628 56.9855 24.0202 57.034C23.8746 57.034 23.729 57.0825 23.632 57.131C23.3408 57.1796 23.0497 57.1796 22.7585 57.2281C22.6615 57.2281 22.5644 57.2281 22.5159 57.2281C22.2247 57.2281 21.8851 57.2281 21.5939 57.2281C21.5454 57.2281 21.4483 57.2281 21.3998 57.2281C21.1087 57.2281 20.8175 57.1796 20.5264 57.131C20.4293 57.131 20.3323 57.131 20.2837 57.0825C20.0411 57.034 19.75 56.9855 19.5073 56.9369C19.3618 56.8884 19.2647 56.8884 19.1191 56.8399C18.925 56.7914 18.7309 56.7428 18.4883 56.6458C18.2942 56.5973 18.1486 56.5487 17.9545 56.4517C17.8089 56.4032 17.6634 56.3061 17.5178 56.2576C17.3237 56.1605 17.0811 56.0635 16.887 55.9664C16.7899 55.9179 16.6443 55.8694 16.5473 55.7723C16.3047 55.6753 16.1106 55.5297 15.8679 55.3841C15.7709 55.3356 15.6738 55.2871 15.5768 55.19C15.3342 55.0445 15.1401 54.8989 14.8974 54.7533C14.8004 54.6563 14.7033 54.6077 14.6063 54.5107C14.4122 54.3651 14.2181 54.2195 14.024 54.0254C13.8784 53.8799 13.7328 53.7828 13.6358 53.6372C13.4902 53.4916 13.3446 53.3461 13.2476 53.249C13.0535 53.0549 12.9079 52.8608 12.7623 52.6667C12.6653 52.5697 12.6167 52.4726 12.5197 52.3756C12.3256 52.1329 12.18 51.8903 12.0344 51.6477C11.9859 51.5506 11.9374 51.5021 11.8889 51.4051C11.7433 51.1624 11.5977 50.8713 11.5007 50.6287C11.4521 50.5316 11.4036 50.4831 11.3551 50.386C11.258 50.1434 11.161 49.9008 11.0639 49.6582C11.0154 49.5611 10.9669 49.4155 10.9184 49.3185C10.8213 49.0758 10.7728 48.8817 10.7243 48.6391C10.6757 48.4935 10.6272 48.348 10.5787 48.2024C10.5302 47.9598 10.4816 47.6686 10.4331 47.426C10.4331 47.3289 10.3846 47.1834 10.3846 47.0863C10.3361 46.7952 10.3361 46.504 10.2875 46.2129C10.2875 46.1158 10.2875 46.0673 10.2875 45.9702C10.2875 45.6791 10.2875 45.3394 10.2875 45.0483C10.2875 44.9512 10.2875 44.9027 10.2875 44.8056C10.2875 44.5145 10.3361 44.2233 10.3846 43.9322C10.3846 43.8351 10.3846 43.7381 10.4331 43.641C10.4816 43.3984 10.5302 43.1558 10.5787 42.9131C10.6272 42.7676 10.6272 42.622 10.6757 42.4764C10.7243 42.2823 10.7728 42.0882 10.8213 41.8941C10.8698 41.7 10.9184 41.5059 11.0154 41.3118C11.0639 41.1662 11.1125 41.0692 11.161 40.9236C11.258 40.681 11.3551 40.4384 11.4521 40.2443C11.5007 40.1472 11.5492 40.0502 11.5977 40.0016C11.7433 39.759 11.8889 39.4678 12.0344 39.2252C12.083 39.1767 12.1315 39.0796 12.1315 39.0311C12.2771 38.7885 12.4712 38.4973 12.6653 38.2547C12.7138 38.2062 12.7623 38.1091 12.8108 38.0606C13.0049 37.818 13.199 37.6239 13.3931 37.3813C13.4902 37.2842 13.5387 37.2357 13.6358 37.1386C13.8299 36.9445 13.9755 36.7504 14.1696 36.6049C14.2666 36.5078 14.4122 36.4108 14.5092 36.3137C14.7033 36.1681 14.8489 36.0226 15.043 35.877C15.1401 35.7799 15.2371 35.7314 15.3827 35.6829C15.5768 35.5373 15.8194 35.3917 16.0135 35.2461C16.1106 35.1976 16.1591 35.1491 16.2561 35.1006C16.4988 34.955 16.7899 34.8094 17.0325 34.7124C17.1296 34.6638 17.2266 34.6638 17.2752 34.6153C17.5663 34.5183 17.8089 34.3727 18.1001 34.2756C18.2457 34.2271 18.3427 34.1786 18.4883 34.1786C18.7309 34.0815 18.9736 34.033 19.2162 33.9845C19.4103 33.936 19.6044 33.8874 19.7985 33.8874C19.9926 33.8389 20.1867 33.7904 20.3323 33.7904C20.5749 33.7419 20.8175 33.7419 21.0601 33.7419C21.2057 33.7419 21.3028 33.6933 21.4483 33.6933C21.7395 33.6933 21.9821 33.6933 22.2733 33.6933C22.3703 33.6933 22.5159 33.6933 22.6129 33.6933C22.8556 33.6933 23.1467 33.7419 23.3894 33.7904C23.5349 33.7904 23.632 33.8389 23.7776 33.8389C24.0202 33.8874 24.2143 33.936 24.4569 33.9845C24.6025 34.033 24.7966 34.033 24.9422 34.0815C25.1363 34.1301 25.2818 34.1786 25.4759 34.2271C25.67 34.2756 25.8641 34.3727 26.1068 34.4212C26.2523 34.4697 26.3494 34.5183 26.4464 34.5668C26.6891 34.6638 26.9317 34.7609 27.1743 34.8579C27.2714 34.9065 27.3199 34.955 27.4169 35.0035C27.6596 35.1491 27.9507 35.2947 28.1934 35.4402C28.2419 35.4888 28.2904 35.5373 28.3875 35.5373C28.6301 35.6829 28.8727 35.877 29.1639 36.0711C29.2124 36.1196 29.3094 36.1681 29.358 36.2167C29.6006 36.4108 29.7947 36.5563 30.0373 36.7504C30.1344 36.8475 30.2314 36.9445 30.3285 37.0416C30.5226 37.1872 30.6681 37.3813 30.8137 37.5754C30.9593 37.7209 31.0563 37.8665 31.1534 38.0121C31.299 38.1577 31.396 38.3032 31.5416 38.4488C31.6386 38.5944 31.7842 38.7885 31.8813 38.9341C31.9783 39.0796 32.0754 39.2252 32.1724 39.4193C32.2695 39.5649 32.3665 39.759 32.4151 39.9046C32.5121 40.0987 32.6092 40.2443 32.7062 40.4384C32.7547 40.5839 32.8518 40.7295 32.9003 40.9236C32.9974 41.1177 33.0944 41.3118 33.1429 41.5059C33.1915 41.6515 33.24 41.8456 33.2885 41.9912C33.337 42.1853 33.4341 42.3794 33.4826 42.622C33.5311 42.8161 33.5797 43.0587 33.6282 43.2528C33.5797 43.4469 33.5797 43.641 33.6282 43.7866ZM99.8166 114.051C100.011 114.1 100.156 114.197 100.35 114.294C100.496 114.391 100.69 114.439 100.836 114.536C100.981 114.633 101.175 114.731 101.321 114.828C101.466 114.925 101.661 115.022 101.806 115.119C101.952 115.216 102.097 115.313 102.243 115.41C102.388 115.507 102.583 115.604 102.728 115.75C102.874 115.847 103.019 115.992 103.116 116.089C103.262 116.235 103.408 116.332 103.553 116.477C103.699 116.574 103.796 116.72 103.941 116.866C104.087 117.011 104.232 117.157 104.378 117.302C104.475 117.448 104.621 117.594 104.718 117.691C104.863 117.836 104.96 117.982 105.106 118.176C105.203 118.321 105.3 118.467 105.397 118.613C105.494 118.758 105.64 118.952 105.737 119.098C105.834 119.243 105.931 119.437 106.028 119.632C106.125 119.777 106.222 119.971 106.27 120.117C106.368 120.311 106.416 120.505 106.513 120.699C106.562 120.845 106.659 121.039 106.707 121.184C106.756 121.378 106.853 121.621 106.901 121.815C106.95 122.009 106.998 122.155 107.047 122.349C107.095 122.592 107.144 122.786 107.144 123.028C107.192 123.222 107.192 123.368 107.241 123.562C107.29 123.805 107.29 123.999 107.29 124.241C107.29 124.436 107.338 124.581 107.338 124.775C107.338 125.018 107.338 125.212 107.338 125.455C107.338 125.6 107.338 125.794 107.338 125.94C107.338 126.182 107.29 126.377 107.241 126.619C107.241 126.765 107.192 126.959 107.192 127.104C107.144 127.347 107.095 127.541 107.047 127.735C106.998 127.881 106.998 128.026 106.95 128.172C106.901 128.366 106.804 128.609 106.756 128.803C106.707 128.948 106.659 129.094 106.61 129.24C106.513 129.434 106.465 129.628 106.368 129.822C106.319 129.967 106.222 130.113 106.173 130.259C106.076 130.453 105.979 130.598 105.882 130.792C105.785 130.938 105.737 131.084 105.64 131.229C105.543 131.375 105.397 131.569 105.3 131.714C105.203 131.86 105.106 132.006 105.009 132.151C104.912 132.297 104.766 132.442 104.621 132.588C104.524 132.733 104.378 132.879 104.281 133.025C104.135 133.17 103.99 133.267 103.893 133.413C103.747 133.558 103.602 133.704 103.505 133.801C103.359 133.947 103.213 134.044 103.068 134.141C102.922 134.238 102.777 134.383 102.631 134.48C102.486 134.577 102.34 134.674 102.146 134.771C102 134.869 101.806 134.966 101.661 135.111C101.515 135.208 101.321 135.305 101.175 135.354C100.981 135.451 100.836 135.548 100.642 135.645C100.447 135.742 100.302 135.79 100.108 135.839C99.9137 135.936 99.7196 135.985 99.5255 136.033C99.3314 136.082 99.1858 136.13 98.9917 136.179C98.7976 136.227 98.6035 136.276 98.3609 136.324C98.1668 136.373 98.0212 136.373 97.8271 136.421C97.5845 136.47 97.3904 136.518 97.1477 136.518C97.0022 136.518 96.8081 136.567 96.6625 136.567C96.4199 136.567 96.2258 136.615 95.9831 136.615C95.8376 136.615 95.6435 136.615 95.4979 136.615C95.2553 136.615 95.0612 136.615 94.8185 136.567C94.673 136.567 94.4789 136.518 94.3333 136.518C94.0907 136.47 93.8966 136.47 93.6539 136.421C93.5084 136.373 93.3628 136.373 93.1687 136.324C92.9746 136.276 92.7319 136.227 92.5378 136.179C92.3923 136.13 92.2467 136.082 92.1011 136.033C91.907 135.985 91.6644 135.888 91.4703 135.839C91.3247 135.79 91.1791 135.693 91.0336 135.645C90.8395 135.548 90.6454 135.451 90.4027 135.354C90.2572 135.305 90.1601 135.208 90.0145 135.111C89.8204 135.014 89.6263 134.917 89.4322 134.771C89.2867 134.674 89.1896 134.626 89.0926 134.529C88.8985 134.383 88.7044 134.286 88.5102 134.141C88.4132 134.044 88.3161 133.947 88.1706 133.849C87.9765 133.704 87.8309 133.558 87.6368 133.413C87.5398 133.316 87.4427 133.219 87.3456 133.122C87.2001 132.976 87.006 132.782 86.8604 132.588C86.7633 132.491 86.6663 132.345 86.6178 132.248C86.4722 132.054 86.3266 131.86 86.181 131.666C86.084 131.569 86.0355 131.423 85.9384 131.278C85.7928 131.084 85.6958 130.889 85.5502 130.695C85.4532 130.55 85.4046 130.404 85.3561 130.307C85.2591 130.113 85.162 129.919 85.065 129.676C85.0164 129.531 84.9194 129.385 84.8709 129.24C84.7738 129.045 84.6768 128.803 84.6282 128.609C84.5797 128.463 84.5312 128.269 84.4827 128.124C84.4341 127.929 84.3371 127.687 84.2886 127.493C84.24 127.299 84.24 127.153 84.1915 126.959C84.143 126.765 84.0945 126.522 84.0945 126.328C84.0945 126.134 84.0459 125.94 84.0459 125.746C84.0459 125.552 83.9974 125.358 83.9974 125.115C83.9974 124.921 83.9974 124.727 83.9974 124.533C83.9974 124.339 83.9974 124.144 83.9974 123.999C83.9974 123.805 84.0459 123.562 84.0945 123.368C84.0945 123.174 84.143 123.028 84.143 122.834C84.1915 122.64 84.24 122.398 84.2886 122.203C84.3371 122.058 84.3371 121.912 84.3856 121.718C84.4341 121.524 84.5312 121.281 84.5797 121.087C84.6282 120.942 84.6768 120.796 84.7253 120.651C84.8223 120.457 84.9194 120.262 84.9679 120.068C85.0164 119.923 85.1135 119.777 85.162 119.632C85.2591 119.437 85.3561 119.243 85.5017 119.049C85.5987 118.904 85.6473 118.758 85.7443 118.613C85.8414 118.418 85.9869 118.273 86.1325 118.079C86.2296 117.933 86.3266 117.788 86.4237 117.691C86.5692 117.545 86.7148 117.351 86.8119 117.205C86.9089 117.06 87.006 116.963 87.1515 116.817C87.2971 116.672 87.4427 116.526 87.5883 116.38C87.7338 116.283 87.8309 116.138 87.9765 116.041C88.1221 115.895 88.3162 115.798 88.4617 115.653C88.6073 115.555 88.7044 115.458 88.8499 115.313C89.044 115.167 89.1896 115.07 89.3837 114.973C89.5293 114.876 89.6749 114.779 89.8204 114.682C90.0145 114.585 90.2086 114.488 90.4027 114.391C90.5483 114.294 90.6939 114.245 90.8395 114.148C91.0336 114.051 91.2277 114.003 91.4703 113.906C91.6159 113.857 91.81 113.76 91.9555 113.711C92.1496 113.663 92.3923 113.566 92.5864 113.517C92.7805 113.469 92.926 113.42 93.1201 113.372C93.3143 113.323 93.5569 113.275 93.751 113.275C93.9451 113.226 94.1392 113.226 94.2848 113.178C94.4789 113.129 94.7215 113.129 94.9156 113.129C95.1097 113.129 95.3038 113.081 95.4494 113.081C95.6435 113.081 95.8861 113.081 96.0802 113.081C96.2743 113.081 96.4199 113.081 96.614 113.081C96.8081 113.081 97.0022 113.129 97.2448 113.178C97.4389 113.178 97.5845 113.226 97.7786 113.226C97.9727 113.275 98.1668 113.323 98.3609 113.372C98.555 113.42 98.7006 113.469 98.8947 113.517C99.0888 113.566 99.2829 113.663 99.477 113.711C99.477 113.954 99.6225 114.003 99.8166 114.051ZM85.8414 82.073L64.005 58.4412L95.3523 51.3565L85.8414 82.073Z" fill="black"/>
<path d="M199.342 3.70532H188.424L163.53 64.9927H177.117L181.63 52.4247H206.087L210.6 64.9927H224.187L199.342 3.70532ZM185.221 42.2344L193.858 17.9717L202.496 42.2344H185.221Z" fill="black"/>
<path d="M276.012 64.9927L258.3 42.2829L259.077 42.0888C267.472 40.0507 272.906 32.6264 272.906 23.164C272.906 12.2458 264.754 3.70532 254.37 3.70532H231.514V64.9927H244.228V42.7196H245.053L245.296 42.9623L261.018 64.9927H276.012ZM252.041 32.9661H244.18V13.4589H252.041C256.359 13.4589 260.824 17.0983 260.824 23.164C260.824 29.5208 256.311 32.9661 252.041 32.9661Z" fill="black"/>
<path d="M294.743 64.9927H307.456V15.1088H325.217V3.70532H276.982V15.1088H294.743V64.9927Z" fill="black"/>
<path d="M345.597 3.70532H333.66V64.9927H345.597V3.70532Z" fill="black"/>
<path d="M369.714 15.1088H392.035V3.70532H357V64.9927H369.714V39.9537H391.162V28.5503H369.714V15.1088Z" fill="black"/>
<path d="M414.454 3.70532H402.517V64.9927H414.454V3.70532Z" fill="black"/>
<path d="M456.186 65.9138C469.627 65.9138 481.516 57.4704 485.981 44.8539H471.714C468.997 50.3372 462.64 54.1222 456.186 54.1222C445.899 54.1222 437.504 45.2421 437.504 34.3724C437.504 23.5028 445.899 14.5741 456.186 14.5741C462.834 14.5741 468.997 18.2135 471.617 23.6483H485.835C481.371 11.1288 469.53 2.78247 456.137 2.78247C438.717 2.78247 424.596 16.9518 424.596 34.3239C424.596 51.6959 438.765 65.9138 456.186 65.9138Z" fill="black"/>
<path d="M506.167 3.70532H494.23V64.9927H506.167V3.70532Z" fill="black"/>
<path d="M538.679 3.70532L513.786 64.9927H527.373L531.886 52.4247H556.342L560.855 64.9927H574.442L549.646 3.70532H538.679ZM535.476 42.2344L544.114 17.9717L552.751 42.2344H535.476Z" fill="black"/>
<path d="M594.483 3.70532H581.77V64.9927H616.853V53.5893H594.483V3.70532Z" fill="black"/>
<path d="M192.063 105.317C184.881 103.668 178.67 102.26 178.67 97.3107C178.67 92.167 184.542 90.2745 188.472 90.2745C195.897 90.2745 199.488 92.8464 200.312 98.912H212.541C211.91 87.1204 202.884 80.0842 188.23 80.0842C177.263 80.0842 165.471 85.8102 165.471 98.4268C165.471 111.334 177.117 114.246 187.356 116.769C194.926 118.662 201.477 120.263 201.477 125.747C201.477 131.958 193.859 133.608 189.88 133.608C183.717 133.608 177.02 130.745 176.39 122.786H163.482C163.87 138.217 177.603 143.749 189.346 143.749C201.574 143.749 214.676 138.606 214.676 124.194C214.676 110.51 202.156 107.647 192.063 105.317Z" fill="black"/>
<path d="M253.253 80.6172C236.464 80.6172 221.712 95.3689 221.712 112.159C221.712 128.948 236.464 143.7 253.253 143.7C270.043 143.7 284.795 128.948 284.795 112.159C284.795 95.3689 270.092 80.6172 253.253 80.6172ZM253.253 131.035C243.403 131.035 234.377 122.009 234.377 112.11C234.377 102.259 243.354 93.2338 253.253 93.2338C263.153 93.2338 272.13 102.211 272.13 112.11C272.13 122.009 263.104 131.035 253.253 131.035Z" fill="black"/>
<path d="M305.175 112.208C305.175 101.289 313.57 92.4579 323.858 92.4579C330.506 92.4579 336.668 96.0973 339.289 101.532H353.507C349.042 89.0126 337.202 80.6663 323.809 80.6663C306.389 80.6663 292.268 94.8356 292.268 112.208C292.268 129.58 306.437 143.749 323.809 143.749C337.251 143.749 349.139 135.306 353.604 122.689H339.337C336.62 128.172 330.263 131.957 323.809 131.957C313.57 131.957 305.175 123.077 305.175 112.208Z" fill="black"/>
<path d="M375.003 82.4612H363.066V143.749H375.003V82.4612Z" fill="black"/>
<path d="M398.053 118.71H419.501V107.306H398.053V93.9131H420.423V82.4612H385.339V143.749H420.423V132.345H398.053V118.71Z" fill="black"/>
<path d="M445.219 143.749H457.933V93.9131H475.693V82.4612H427.459V93.9131H445.219V143.749Z" fill="black"/>
<path d="M479.478 82.4612L501.994 115.361V143.749H514.708V115.361L537.223 82.4612H522.132L508.351 104.492L494.57 82.4612H479.478Z" fill="black"/>
</g>
</g>
<defs>
<clipPath id="clip0_407_2045">
<rect width="620" height="147" fill="white"/>
</clipPath>
<clipPath id="clip1_407_2045">
<rect width="616.853" height="147.468" fill="white" transform="translate(0 -0.468262)"/>
</clipPath>
</defs>
</svg>
